<?xml version="1.0" encoding="utf-8"?>
<!-- Generator: Adobe Illustrator 19.2.0, SVG Export Plug-In . SVG Version: 6.00 Build 0)  -->
<svg version="1.1" id="Layer_1" xmlns="http://www.w3.org/2000/svg" xmlns:xlink="http://www.w3.org/1999/xlink" x="0px" y="0px"
	 viewBox="0 0 56.7 56.7" style="enable-background:new 0 0 56.7 56.7;" xml:space="preserve">
<style type="text/css">
	.st0{fill-rule:evenodd;clip-rule:evenodd;fill:#FFFFFF;}
</style>
<path class="st0" d="M3.1,0C1.4,0,0,1.4,0,3.1v50.2c0,1.7,1.4,3.1,3.1,3.1h27V34.6h-7.4v-8.5h7.4v-6.3c0-7.3,4.5-11.3,10.9-11.3
	c3.1,0,5.8,0.2,6.6,0.3v7.6l-4.5,0c-3.5,0-4.2,1.7-4.2,4.1v5.4h8.4l-1.1,8.5h-7.3v21.8h14.4c1.7,0,3.1-1.4,3.1-3.1V3.1
	C56.4,1.4,55,0,53.3,0H3.1z"/>
</svg>
