<?xml version="1.0" encoding="utf-8"?>
<!-- Generator: Adobe Illustrator 19.2.0, SVG Export Plug-In . SVG Version: 6.00 Build 0)  -->
<svg version="1.1" xmlns="http://www.w3.org/2000/svg" xmlns:xlink="http://www.w3.org/1999/xlink" x="0px" y="0px"
	 viewBox="0 0 501.6 125.7" style="enable-background:new 0 0 501.6 125.7;" xml:space="preserve">
<style type="text/css">
	.st0{display:none;stroke:#FFFFFF;stroke-miterlimit:10;}
	.st1{display:none;}
	.st2{display:inline;}
	.st3{clip-path:url(#SVGID_2_);fill:#FFFFFF;}
	.st4{display:none;fill:#C62020;}
	.st5{fill:#FFFFFF;}
</style>
<g id="Layer_1">
	<rect x="-107" y="-59.5" class="st0" width="707" height="263"/>
	<g class="st1">
		<g class="st2">
			<defs>
				<path id="SVGID_1_" d="M424.2,37.8h38.2v12h-25.2v7.7H460v11.1h-22.8v8.1h25.5v12h-38.5V37.8z M365.3,37.8h13.9l11.3,19.7
					l11.3-19.7h13.9v50.9h-13.1V59.5l-12.1,19.9h-0.3l-12.1-19.8v29.1h-12.9V37.8H365.3z M343.4,37.8h13.2v50.9h-13.2V37.8z
					 M310,50.2h-14.2V37.8h41.6v12.4h-14.2v38.5H310V50.2z M242.1,37.4h12.7L275,88.7h-14.1l-3.5-9.1h-18.3l-3.4,9.1h-13.8
					L242.1,37.4z M253.6,68.6l-5.3-14.5L243,68.6H253.6z M176.9,37.8h22.4c3.7,0,6.8,0.5,9.3,1.5s4.6,2.3,6.2,4.1
					c2.8,2.9,4.2,6.9,4.2,11.8v0.1c0,3.9-0.9,7.2-2.6,9.7c-1.8,2.6-4.1,4.5-7.1,5.9l11.3,17.7h-15.2l-9.6-15.4h-0.1h-5.6v15.4h-13.2
					L176.9,37.8L176.9,37.8z M198.7,62.2c2.3,0,4-0.5,5.2-1.6s1.8-2.6,1.8-4.4V56c0-2-0.6-3.5-1.9-4.5s-3-1.5-5.2-1.5H190v12.2
					H198.7z M143.7,50.2h-14.2V37.8h41.6v12.4h-14.2v38.5h-13.2L143.7,50.2L143.7,50.2z M95.3,62.8l-15.6-25h15.1l8.4,14.3l8.5-14.3
					h14.8l-15.6,24.8l16.3,26h-15.1L103,73.3l-9.2,15.3H79.1L95.3,62.8z M37.3,37.8h38.2v12H50.3v7.7h22.8v11.1H50.3v8.1h25.5v12
					H37.3V37.8z"/>
			</defs>
			<clipPath id="SVGID_2_">
				<use xlink:href="#SVGID_1_"  style="overflow:visible;"/>
			</clipPath>
			<rect x="23.1" y="23.3" class="st3" width="453.7" height="79.5"/>
		</g>
	</g>
	<rect x="37.3" y="37.8" class="st4" width="425.1" height="50.9"/>
	<path class="st5" d="M490.3,11.3v103.1h-479V11.3H490.3 M501.6,0h-11.3h-479H0v11.3v103.1v11.3h11.3h478.9h11.3v-11.3V11.3V0H501.6
		z"/>
	<g>
		<path class="st5" d="M44.5,37.6h41v12H58.5v7.7H83v11.2H58.5v8.1h27.4v12H44.5V37.6z"/>
		<path class="st5" d="M105.6,62.7L88.8,37.6H105l9.1,14.4l9.1-14.4h15.9l-16.8,25l17.5,26.1h-16.3l-9.8-15.4l-9.9,15.4H88
			L105.6,62.7z"/>
		<path class="st5" d="M156.2,50h-15.3V37.6h44.8V50h-15.3v38.7h-14.2V50z"/>
		<path class="st5" d="M190.5,37.6h24.2c3.9,0,7.3,0.5,10,1.5c2.7,1,4.9,2.3,6.6,4.1c3,2.9,4.5,6.9,4.5,11.9v0.1
			c0,3.9-0.9,7.2-2.8,9.8c-1.9,2.6-4.5,4.6-7.7,5.9l12.2,17.8h-16.4l-10.3-15.5h-0.1h-6.1v15.5h-14.2V37.6z M214,62.1
			c2.4,0,4.3-0.5,5.6-1.6c1.3-1.1,2-2.6,2-4.4v-0.1c0-2-0.7-3.6-2-4.6c-1.4-1-3.2-1.5-5.6-1.5h-9.3v12.3H214z"/>
		<path class="st5" d="M259.1,37.2h13.7l21.8,51.5h-15.2l-3.7-9.1h-19.7l-3.7,9.1h-14.9L259.1,37.2z M271.6,68.6l-5.7-14.5
			l-5.8,14.5H271.6z"/>
		<path class="st5" d="M316.8,37.6H341c3.9,0,7.3,0.5,10,1.5c2.7,1,4.9,2.3,6.6,4.1c3,2.9,4.5,6.9,4.5,11.9v0.1
			c0,3.9-0.9,7.2-2.8,9.8c-1.9,2.6-4.5,4.6-7.7,5.9l12.2,17.8h-16.4l-10.3-15.5H337H331v15.5h-14.2V37.6z M340.3,62.1
			c2.4,0,4.3-0.5,5.6-1.6c1.3-1.1,2-2.6,2-4.4v-0.1c0-2-0.7-3.6-2-4.6c-1.4-1-3.2-1.5-5.6-1.5H331v12.3H340.3z"/>
		<path class="st5" d="M367.8,37.6h41v12h-27.1v7.7h24.5v11.2h-24.5v8.1h27.4v12h-41.4V37.6z"/>
		<path class="st5" d="M415.1,37.6H456V50h-26.7v8.6h24.2v11.8h-24.2v18.2h-14.2V37.6z"/>
	</g>
</g>
<g id="Layer_2">
</g>
</svg>
