<?xml version="1.0" encoding="utf-8"?>
<!-- Generator: Adobe Illustrator 19.2.0, SVG Export Plug-In . SVG Version: 6.00 Build 0)  -->
<svg version="1.1" id="Layer_1" xmlns="http://www.w3.org/2000/svg" xmlns:xlink="http://www.w3.org/1999/xlink" x="0px" y="0px"
	 viewBox="0 0 201 396" style="enable-background:new 0 0 201 396;" xml:space="preserve">
<style type="text/css">
	.st0{clip-path:url(#SVGID_3_);}
	.st1{fill:#FFFFFF;}
</style>
<g>
	<defs>
		<path id="SVGID_1_" d="M59.7,312.5h13.5l21.5,50.8h-15l-3.7-9H56.5l-3.6,9H38.2L59.7,312.5z M71.9,343.3L66.3,329l-5.7,14.3H71.9z
			 M43.2,242.5H67c3.9,0,7.2,0.5,9.9,1.4s4.9,2.3,6.6,4c3,2.9,4.5,6.8,4.5,11.7v0.1c0,3.9-0.9,7.1-2.8,9.6c-1.9,2.5-4.4,4.5-7.6,5.8
			l12,17.6H73.5l-10.2-15.3h-0.1h-6v15.3h-14V242.5z M65.4,267.2c2.4,0,4.2-0.5,5.5-1.6s1.9-2.5,1.9-4.4V261c0-2-0.7-3.5-2-4.5
			c-1.3-1-3.2-1.5-5.5-1.5h-9.1v12.1H65.4z M59.3,185.7H44.2v-12.2h44.2v12.2H73.3v38.2h-14V185.7z M58.5,128.3l-16.6-24.8H58
			l8.9,14.2l9-14.2h15.7l-16.6,24.6l17.3,25.8H76.3l-9.6-15.2l-9.7,15.2H41.2L58.5,128.3z M46.2,33.5h40.5v11.9H60V53h24.2v11H60v8
			h27.1v11.9H46.2V33.5z"/>
	</defs>
	<defs>
		<path id="SVGID_2_" d="M117.2,278.5h40.5v11.9H131v7.6h24.2v11H131v8h27.1v11.9h-40.9V278.5z M110.2,209.5H125l12,19.5l12-19.5
			h14.8v50.4h-13.9V231L137,250.7h-0.3l-12.8-19.6v28.8h-13.7V209.5z M130.2,139.5h14v50.4h-14V139.5z M130.3,81.7h-15.1V69.5h44.2
			v12.2h-15.1v38.2h-14V81.7z"/>
	</defs>
	<use xlink:href="#SVGID_1_"  style="overflow:visible;fill:#FFFFFF;"/>
	<use xlink:href="#SVGID_2_"  style="overflow:visible;fill:#FFFFFF;"/>
	<clipPath id="SVGID_3_">
		<use xlink:href="#SVGID_1_"  style="overflow:visible;"/>
	</clipPath>
	<clipPath id="SVGID_4_" class="st0">
		<use xlink:href="#SVGID_2_"  style="overflow:visible;"/>
	</clipPath>
</g>
<g>
	<path class="st1" d="M201,396H0V0h201V396z M11,385h179V11H11V385z"/>
</g>
</svg>
