<?xml version="1.0" encoding="utf-8"?>
<!-- Generator: Adobe Illustrator 19.2.0, SVG Export Plug-In . SVG Version: 6.00 Build 0)  -->
<svg version="1.1" id="Layer_1" xmlns="http://www.w3.org/2000/svg" xmlns:xlink="http://www.w3.org/1999/xlink" x="0px" y="0px"
	 viewBox="0 0 501.6 125.7" style="enable-background:new 0 0 501.6 125.7;" xml:space="preserve">
<style type="text/css">
	.st0{clip-path:url(#SVGID_2_);fill:#FFFFFF;}
	.st1{fill:#FFFFFF;}
</style>
<g>
	<defs>
		<path id="SVGID_1_" d="M424.2,37.8h38.2v12h-25.2v7.7H460v11.1h-22.8v8.1h25.5v12h-38.5V37.8z M365.3,37.8h13.9l11.3,19.7
			l11.3-19.7h13.9v50.9h-13.1V59.5l-12.1,19.9h-0.3l-12.1-19.8v29.1h-12.9V37.8z M343.4,37.8h13.2v50.9h-13.2V37.8z M310,50.2h-14.2
			V37.8h41.6v12.4h-14.2v38.5H310V50.2z M242.1,37.4h12.7L275,88.7h-14.1l-3.5-9.1h-18.3l-3.4,9.1h-13.8L242.1,37.4z M253.6,68.6
			l-5.3-14.5L243,68.6H253.6z M176.9,37.8h22.4c3.7,0,6.8,0.5,9.3,1.5c2.5,1,4.6,2.3,6.2,4.1c2.8,2.9,4.2,6.9,4.2,11.8v0.1
			c0,3.9-0.9,7.2-2.6,9.7c-1.8,2.6-4.1,4.5-7.1,5.9l11.3,17.7h-15.2l-9.6-15.4h-0.1h-5.6v15.4h-13.2V37.8z M198.7,62.2
			c2.3,0,4-0.5,5.2-1.6c1.2-1.1,1.8-2.6,1.8-4.4V56c0-2-0.6-3.5-1.9-4.5s-3-1.5-5.2-1.5h-8.6v12.2H198.7z M143.7,50.2h-14.2V37.8
			h41.6v12.4h-14.2v38.5h-13.2V50.2z M95.3,62.8l-15.6-25h15.1l8.4,14.3l8.5-14.3h14.8l-15.6,24.8l16.3,26h-15.1L103,73.3l-9.2,15.3
			H79.1L95.3,62.8z M37.3,37.8h38.2v12H50.3v7.7h22.8v11.1H50.3v8.1h25.5v12H37.3V37.8z"/>
	</defs>
	<clipPath id="SVGID_2_">
		<use xlink:href="#SVGID_1_"  style="overflow:visible;"/>
	</clipPath>
	<rect x="23.1" y="23.3" class="st0" width="453.7" height="79.5"/>
</g>
<path class="st1" d="M490.3,11.3v103.1H11.3V11.3H490.3 M501.6,0h-11.3H11.3H0v11.3v103.1v11.3h11.3h478.9h11.3v-11.3V11.3V0
	L501.6,0z"/>
</svg>
