<?xml version="1.0" encoding="utf-8"?>
<!-- Generator: Adobe Illustrator 19.2.0, SVG Export Plug-In . SVG Version: 6.00 Build 0)  -->
<svg version="1.1" id="Capa_1" xmlns="http://www.w3.org/2000/svg" xmlns:xlink="http://www.w3.org/1999/xlink" x="0px" y="0px"
	 viewBox="0 0 477.2 477.2" style="enable-background:new 0 0 477.2 477.2;" xml:space="preserve">
<style type="text/css">
	.st0{fill:#FFFFFF;}
</style>
<path class="st0" d="M473.3,4c-2.4-2.4-5.9-3.9-9.5-3.9L331.7,0l0,0l-93.1,0l-93.1,0l0,0l-132.1,0C9.8,0.1,6.3,1.6,3.9,4
	c-2.4,2.4-4,5.8-3.9,9.5C0,21,6,27,13.5,27L159,27l0,0l79.6,0l79.6,0l0,0l145.4,0c7.5,0,13.5-6,13.5-13.5
	C477.2,9.8,475.7,6.4,473.3,4z"/>
<path class="st0" d="M473.3,166c-2.4-2.4-5.9-3.9-9.5-3.9l-132.1,0l0,0l-93.1,0l-93.1,0l0,0l-132.1,0c-3.7,0-7.1,1.5-9.5,3.9
	c-2.4,2.4-4,5.8-3.9,9.5C0,183,6,189,13.5,189l145.4,0l0,0l79.6,0l79.6,0l0,0l145.4,0c7.5,0,13.5-6,13.5-13.5
	C477.2,171.8,475.7,168.4,473.3,166z"/>
<path class="st0" d="M473.3,328c-2.4-2.4-5.9-3.9-9.5-3.9l-132.1,0l0,0l-93.1,0l-93.1,0l0,0l-132.1,0c-3.7,0-7.1,1.5-9.5,3.9
	c-2.4,2.4-4,5.8-3.9,9.5C0,345,6,351,13.5,351l145.4,0l0,0l79.6,0l79.6,0l0,0l145.4,0c7.5,0,13.5-6,13.5-13.5
	C477.2,333.8,475.7,330.4,473.3,328z"/>
</svg>
