<?xml version="1.0" encoding="utf-8"?>
<!-- Generator: Adobe Illustrator 19.2.0, SVG Export Plug-In . SVG Version: 6.00 Build 0)  -->
<svg version="1.1" id="Layer_1" xmlns="http://www.w3.org/2000/svg" xmlns:xlink="http://www.w3.org/1999/xlink" x="0px" y="0px"
	 viewBox="0 0 955.3 955.3" style="enable-background:new 0 0 955.3 955.3;" xml:space="preserve">
<style type="text/css">
	.st0{fill:#343434;}
	.st1{fill:#C69D69;}
	.st2{fill:#E8D7C4;}
	.st3{fill:#EAB9B9;}
	.st4{fill:#F8EA45;}
	.st5{fill:#C03A2A;}
	.st6{fill:#E0C5AA;}
</style>
<g id="dzqyZN.tif">
	<g>
		<path class="st0" d="M552.1,794.7c0-9.1,0-17.8,0-26.5c0-5.9,3.5-9.5,9.3-9.6c6.4-0.1,12.9-0.1,19.3,0c6,0.1,9.3,3.5,9.4,9.5
			c0,11.1,0,22.3,0,33.4c0,40.8,0,81.6,0,122.4c0,6.4-3.3,9.7-9.7,9.8c-6.2,0-12.4,0-18.6,0c-6.1,0-9.6-3.5-9.7-9.6
			c0-4.1,0-8.3,0-12.4c0-4.7,0-9.3,0-14.3c-2.2,0.1-3.9,0.2-5.6,0.3c-7.1-0.1-14.2-0.2-21.3-0.3c-36.7,0-127.5,0-128.5,0
			c-1.8,0-33.1,0.1-46.2,0.1c-6.5-0.1-13.1-0.2-19.6-0.3c0,0,0,0,0,0c-5.2-1.7-7-4.3-7-10.3c0-27.2,0-54.4,0-81.5
			c0-0.9,0-1.8,0.1-2.7c0.7-4.9,3.8-7.7,8.8-7.8c3.9-0.1,7.8-0.1,11.7-0.1c0.9,0,1.8,0.1,2.7,0.1c51.5,0,103,0,154.4,0
			c14.9,0,29.9-0.1,44.8-0.2C548.4,794.7,550.2,794.7,552.1,794.7z"/>
		<path class="st1" d="M555,636.7c-0.9-0.2-2.5,0-2.9,0.7c-0.4,0.6-0.3,2.4,0.3,2.9c1.5,1.4,3.4,2.5,5.2,3.7
			C558.1,642.1,556.4,637,555,636.7z"/>
		<path class="st2" d="M560.9,632C560.9,632,560.9,632,560.9,632C560.9,632,560.9,632,560.9,632z"/>
		<path class="st1" d="M331,897.3C331,897.3,331,897.3,331,897.3C331,897.3,331,897.3,331,897.3z"/>
		<path class="st2" d="M458.9,951.5c-0.2-3.3-1.6-5.9-4.8-7.6c-0.7,0.8-1.3,1.5-1.5,1.8c0.9,2.3,1.6,4.1,2.3,5.9
			C456.2,951.5,457.5,951.5,458.9,951.5z"/>
		<path class="st2" d="M487.6,357.8c-1.9,2.3-3.6,4.7-5.7,6.6c-0.9,0.8-2.7,0.7-4,1c-1.1,0.2-2.2,0.5-3.6,0.8
			c3.4,4.4,6.9,4.6,10,1.3c1.5-1.6,2.7-3.5,4.2-5c0.8-0.8,2.1-1.2,3.2-1.8c0.5-0.3,1.1-0.3,1.5-0.7c0.3-0.3,0.6-0.7,0.7-1.2
			c0.5-2.8,0.9-5.7,1.3-8.6c-0.4-0.1-0.7-0.2-1.1-0.2c-0.4,0.5-0.9,1-1.3,1.5c-2.9,3.2-5.8,3-7.9-0.7c-0.3-0.6-0.2-2,0.3-2.4
			c2.1-1.9,1.7-3.7,0.1-5.8c-1.3,1.6-2.7,3.1-3.9,4.6c-2.1,0.2-4-3.7-5.9,0c0.3,1.8,4.4,2,2,5.1c-4.6,6.1-5.9,6.9-10.4,5.3
			c-0.2,1-0.8,2.8-0.7,2.9c1.8,0.8,4,2.2,5.5,1.7c2.2-0.8,4.1-2.8,5.7-4.7C482,352.3,480.9,351.7,487.6,357.8z"/>
		<path class="st2" d="M510.3,396c5.1-6.2,10-12.3,14.9-18.3c1.5-1.8,1.3-3-1.2-3.9c-1.4,1.7-2.9,3.4-4.3,5c-0.4-0.1-0.7,0-0.8-0.1
			c-5.6-6.4-9.9-5.5-14.7,1c-1.7,2.3-3.5,4.5-5.6,7c0.8,0.7,1.6,1.4,2.7,2.3c2.4-3,4.7-5.9,7-8.7c2.5-3.1,4.5-3.2,7.2-0.7
			c1.5,1.5,1.8,2.6,0.2,4.3c-2.3,2.4-4.2,5.2-6.4,7.7C507.7,393.4,507.7,394.7,510.3,396z"/>
		<path class="st2" d="M406.2,278c-1-0.8-1.8-1.5-2.7-2.2c-3.1,3.7-6.1,7.3-9.2,11.1c-2.7-3.8,1.5-9.3-4.1-12.1c0,2.7-0.1,5.2,0,7.6
			c0.2,2.4-0.8,3.5-3.2,4c-3,0.5-5.9,1.5-9.1,2.3c1.4,2.8,3.5,2.7,5.9,2c2.1-0.6,4.3-0.9,6.5-1.4c0.2,0.3,0.5,0.6,0.7,1
			c-1.3,2-2.6,4-4,6.2c0.7,0.5,1.5,1.1,2.6,2C395.1,291.6,400.5,285,406.2,278z"/>
		<path class="st2" d="M459,339.5c3-3.8,7-4.2,10.8-1.2c3.6,2.8,3.9,6.8,0.9,10.5c-1.1,1.3-2.2,2.7-3.3,4c-2.3,2.7-5.1,3.6-8.3,2.1
			c-3.2-1.5-5.2-4-5.1-7.7c2.3-0.9,3.1,0.2,4,2c1.7,3.6,4.8,3.7,7,0.2c-2.7-2.2-5.4-4.5-8.4-7C457.5,341.3,458.3,340.4,459,339.5z
			 M468.2,341.8c-1-1.1-3.2-1.9-4.6-1.6c-2.4,0.5-2.6,2.3-0.7,3.9c0.9,0.8,2,1.6,2.9,2.4c0.3,0.2,0.6,0.3,1.2,0.7
			C469,345.6,470,343.6,468.2,341.8z"/>
		<path class="st2" d="M449.9,325.4c0-3-4.5-7.9-7.5-8c-0.5,0-1.5,0.6-1.5,0.9c0,0.8,0.2,1.8,0.7,2.3c1.1,0.9,2.7,1.4,3.7,2.4
			c0.7,0.7,0.7,2,1,3c-1,0.3-2.1,0.9-3.1,0.8c-1.4-0.3-2.7-1.7-4.1-1.7c-2,0-4.3,0.3-5.8,1.3c-2,1.3-2.4,4-0.9,5.8
			c2.1,2.4,4.8,4.3,7.4,6.3c0.3,0.3,1.4-0.4,2.2-0.7c-0.3-0.7-0.4-1.7-0.9-2.2c-1.3-1.1-3.1-1.7-4.2-2.9c-0.7-0.8-0.7-2.3-1-3.5
			c1.2-0.2,2.5-0.6,3.6-0.4c1.3,0.2,2.5,1.3,3.8,1.6C446.9,331.5,449.9,329.2,449.9,325.4z"/>
		<path class="st2" d="M401.2,289.7c1.2,0.5,2.4,1,3.6,1.6c1.4,0.8,3.3,1.5,3.9,2.8c0.5,1.1-0.3,2.9-0.9,4.3c-0.4,1-1.3,1.9-2.2,2.6
			c-1.3,0.9-3,2.4-4.1,2.2c-1.4-0.3-2.5-2.2-3.7-3.5c-0.8-0.9-1.5-1.9-2.6-3.2c-1.5,4.4-0.2,7.4,3.6,9.7c2.8,1.7,5.7,1.4,8.1-1.1
			c1.4-1.4,2.5-3,3.8-4.5c2.7-3.2,3.1-6.1,1.2-8.7c-2.6-3.7-6.1-4.9-10.1-3.4C401.5,288.9,401.3,289.3,401.2,289.7z"/>
		<path class="st2" d="M435.3,310.8c-1.4-1-2.5-1.8-3.7-2.7c-0.7,0.8-1.2,1.5-1.7,2.1c0.1,0.3,0.2,0.7,0.3,0.7
			c3,1.7,2.7,3.7,0.5,5.9c-1.1,1.1-1.9,2.7-3.2,3.6c-1,0.7-2.7,1.4-3.6,1c-2.1-0.9-3-0.2-3.7,1.5c3.3,3.8,6.3,4,9.7,0.3
			c1.4-1.5,2.5-3.3,3.9-4.7c0.9-0.8,2.3-1,3.4-1.7c0.8-0.5,2.2-1.6,2.1-1.8c-1.4-2.4,0.8-3.7,1.4-5.5c0.3-1-0.3-2.3-0.7-4.2
			C438.3,307.4,436.9,309,435.3,310.8z"/>
		<path class="st2" d="M420.8,311.3c2.8,3.4,4.1,1.3,5.4-0.7c2.6-3.9,1.6-6.6-4.5-10.1c-0.2,1.4-0.9,3.2-0.5,3.4
			C425.1,306.6,423.4,309,420.8,311.3z"/>
		<path class="st2" d="M412.8,316.8c0.6-0.7,1.2-1.5,2.1-2.6c-4.6-2.3-4-5.1-0.4-8c-1.2-0.9-2-1.5-2.8-2.2
			C405.8,310.1,406.1,313.1,412.8,316.8z"/>
		<path class="st2" d="M342.6,445c1.4-0.1,2.4-0.1,3.3-0.1c1.1-6.6-1.7-10.1-7.1-9c-0.6,0.1-1.5,1.1-1.5,1.7c-0.1,0.6,0.8,2,1.2,1.9
			C342.8,438.8,342.7,441.7,342.6,445z"/>
		<path class="st2" d="M340,453.2c0-1.2,0-2.1,0-3.3c-3.5,0-6.8-0.3-5.1-5.1c-2.9-1.2-4-0.5-3.9,2.3
			C331.1,452.2,333.5,453.9,340,453.2z"/>
		<path class="st2" d="M383.4,273.1c0.9,0.3,1.8,0.8,2.6,0.7c0.6-0.1,1.6-1,1.6-1.5c0-0.7-0.7-1.6-1.3-1.9c-0.4-0.2-1.3,0.6-1.9,1
			C384,272,383.7,272.5,383.4,273.1z"/>
		<path class="st3" d="M413,410.1c-7.9,0-15.9-0.1-23.8,0c-8,0.1-13,5.2-13,13.2c0,5.9,0,11.7,0,17.6c0,7,4.9,12.6,11.9,12.6
			c16.9,0.2,33.8,0.2,50.7,0c7-0.1,11.8-5.6,11.9-12.7c0-6,0-11.9,0-17.9c0-7.4-5-12.7-12.4-12.8C429.8,410,421.4,410.1,413,410.1z"
			/>
		<path class="st2" d="M517.1,597.6c1.4,0.8,2.5,1.8,3.6,2c4.5,0.8,5.7,3.3,3.1,6.9c-0.5,0.7-1.1,1.5-1.7,2.2
			c-3.7,4.4-6,3.9-8.3-1.3c-0.4-0.9-1.8-1.2-2.8-1.8c-0.3,0.9-1,1.9-0.8,2.7c0.7,3.6,3.1,5.7,6.4,7c3,1.1,5.1-0.4,6.9-2.5
			c1.7-2,3.4-4,4.8-6.3c1.7-2.9,1-5.7-1.9-8.2C523.4,595.5,520.8,595.2,517.1,597.6z"/>
		<path class="st2" d="M555.8,614c-0.7,0.8-1.3,1.6-2,2.4c-0.6,0.8-1.2,1.7-1.5,2.1c-2.5-0.3-4.4-4-5.8-0.8c0.7,2.2,2.2,4.8,1.6,5.3
			c-2.5,2.5-3.3,7.6-8.7,6.3c-0.9-0.2-2,0.5-3.3,0.8c3.2,4.5,6.5,4.8,9.8,1.5c1.4-1.4,2.5-3,3.8-4.4c1.1-1.2,1.8-3.5,4.3-2.4
			c0.2,0.1,0.6-0.3,0.8-0.5C556.2,623.3,557,615.8,555.8,614z"/>
		<path class="st2" d="M538.7,608.9c-0.7,0.7-1.4,1.5-2.1,2.3c4.3,4.7,4.2,3,0.7,8.5c0.7,0.6,1.4,1.3,2.6,2.5
			c1.3-1.9,2.8-3.4,3.6-5.3C544.7,614,543.3,611.9,538.7,608.9z"/>
		<path class="st2" d="M529.3,625.5c0.3-1.3,1.2-3.2,0.8-3.4c-3.6-2.7-2.6-5.1,0.6-7.4c-1.2-1-2-1.7-2.8-2.3
			C522,617.4,522.3,620.8,529.3,625.5z"/>
		<path class="st2" d="M502.4,577.8c-0.9,1.1-1.9,1.9-1.8,2.3c0.3,0.8,1.2,1.6,1.9,1.8c0.4,0.1,1.7-1,1.7-1.5
			C504.1,579.6,503.3,579,502.4,577.8z"/>
		<path class="st2" d="M395,914.6c-1.4,4.8-0.1,7.6,3.8,9.9c2.9,1.7,5.9,1.2,8.3-1.5c1.4-1.5,2.6-3.2,3.9-4.8
			c1.9-2.3,2.9-5.3,1.1-7.6c-1.8-2.2-4.8-3.5-7.5-4.9c-0.5-0.3-1.9,1.1-2.9,1.6c0.9,0.7,1.7,1.5,2.6,2.1c1.5,1,3.7,1.6,4.5,3
			c0.5,0.9-0.8,3-1.5,4.4c-0.4,0.8-1.1,1.5-1.6,2.2c-3.2,3.7-6.4,3.1-8.2-1.5C397.1,916.5,396.1,915.8,395,914.6z"/>
		<path class="st2" d="M412.7,935.1c0.7-1,1.3-1.8,2.1-2.9c-4.6-2.3-4.2-5.1-0.3-7.8c-1.2-1-2-1.7-2.7-2.3
			C405.7,927.2,405.9,930.8,412.7,935.1z"/>
		<path class="st2" d="M420.7,929.5c1.2,1,1.9,1.6,2.6,2.2c6-5,5.7-8.8-0.9-12.9c-0.6,0.7-1.3,1.5-2.2,2.6
			C424.4,923.6,424.5,926.3,420.7,929.5z"/>
		<path class="st4" d="M467.1,347.2c2-1.6,2.9-3.6,1.2-5.4c-1-1.1-3.2-1.9-4.6-1.6c-2.4,0.5-2.6,2.3-0.7,3.9c0.9,0.8,2,1.6,2.9,2.4
			C466.2,346.8,466.5,346.9,467.1,347.2z"/>
	</g>
</g>
<path class="st5" d="M224.6,379.2c26.1-46.6,52.1-93.2,78.2-139.8C344.4,165,386,90.5,427.7,16.1c5.1-9.1,11.6-10.9,20.7-5.8
	c38.2,21.3,76.4,42.7,114.5,64c40.2,22.5,80.4,44.9,120.5,67.4c10,5.6,11.7,11.7,6.2,21.6c-2.6,4.7-5.3,9.4-7.9,14.1
	c-42.3,75.6-84.6,151.3-126.9,226.9c-6.7,12-13.3,24.1-20,36.2c-5.8,10.2-11.6,20.3-17.3,30.6c-10.4,18.6-20.8,37.3-31.3,56
	c-4.5,8-11.4,9.5-19.6,5.6c-5.7-2.6-7.1-6.2-7-12.2c0.3-36.3,0.1-72.7,0.1-109c0-8.7-4.3-13.1-13.1-13.1c-22.1,0-44.1,0-66.2,0
	c-9.2,0-13.7,4.4-13.7,13.8c-0.1,19.8,0,39.5,0,59.3c0,1.4,0,2.7,0,4.8c-9.7-5.3-18.9-10.3-28.1-15.3c-0.7-0.4-1.3-0.9-2-1.3
	c-35.3-19.7-70.5-39.5-105.8-59.2C221.2,395.2,219.3,388.7,224.6,379.2z"/>
<path class="st6" d="M329.9,569.6c7.3,1.6,14.6,3.2,21.8,4.8c4.1,0.9,8.3,1.8,12.9,2.9c-0.3,3.8-0.5,7.5-0.9,11.2
	c-2.4,23.3-4.9,46.6-7.3,69.8c-2,18.8-3.8,37.7-5.8,56.5c-2.4,23.3-5,46.5-7.3,69.8c-0.3,3.3,0.8,6.7,1.3,10.1
	c0.9,0,1.8,0.1,2.7,0.1c51.5,0,103,0,154.4,0c14.9,0,29.9-0.1,44.8-0.2c0-34.3-0.3-68.6,0.1-102.9c0.1-6.7,2.9-13.4,4.4-20
	c1.9-8.2,17.3-72.8,20.7-86.7c6.4-26.8,12.7-53.5,19-80.3c1.4-6.1-0.7-10.5-6-13.6c-1.8-1.1-3.4-2.7-4.9-4.2
	c-15.1-15.5-30.1-31-45.1-46.5c-5.8,10.2-11.6,20.3-17.3,30.6c-10.4,18.6-20.8,37.3-31.3,56c-4.5,8-11.4,9.5-19.6,5.6
	c-5.7-2.6-7.1-6.2-7-12.2c0.3-36.3,0.1-72.7,0.1-109c0-8.7-4.3-13.1-13.1-13.1c-22.1,0-44.1,0-66.2,0c-9.2,0-13.7,4.4-13.7,13.8
	c-0.1,19.8,0,39.5,0,59.3c0,1.4,0,2.7,0,4.8c-9.7-5.3-18.9-10.3-28.1-15.3c-6.2,31-12.3,62.1-18.6,93.1
	C318.2,563.1,321,567.6,329.9,569.6z"/>
<path class="st6" d="M546.6,897.7c0,17.9,0,42.8,0,60.7c-24.5,0-49.1,0.1-73.6,0.1c-3.5,0-7-0.1-10.5-0.1h-7.6c-6,0-11.9,0-17.9,0
	c0,0,0,0,0,0h-5.2c-0.2,0-0.3,0.1-0.5,0.1c-26.8,0-53.7,0-80.5-0.1c0-18-0.1-42.8-0.1-60.8"/>
</svg>
