<?xml version="1.0" encoding="utf-8"?>
<!-- Generator: Adobe Illustrator 19.2.0, SVG Export Plug-In . SVG Version: 6.00 Build 0)  -->
<svg version="1.1" id="Capa_1" xmlns="http://www.w3.org/2000/svg" xmlns:xlink="http://www.w3.org/1999/xlink" x="0px" y="0px"
	 viewBox="0 0 141.7 141.7" style="enable-background:new 0 0 141.7 141.7;" xml:space="preserve">
<style type="text/css">
	.st0{display:none;opacity:0.4;}
	.st1{display:inline;}
	.st2{fill:url(#SVGID_1_);}
	.st3{fill:url(#SVGID_2_);}
	.st4{display:none;fill:none;stroke:#000000;stroke-width:27;stroke-linejoin:round;stroke-miterlimit:10;}
	.st5{display:none;}
	.st6{opacity:0.43;enable-background:new    ;}
	.st7{display:none;fill:#FFFFFF;}
	.st8{fill:#F39C12;}
</style>
<g class="st0">
	<g class="st1">
		<linearGradient id="SVGID_1_" gradientUnits="userSpaceOnUse" x1="-58.3339" y1="69.7661" x2="210.2661" y2="69.7661">
			<stop  offset="0" style="stop-color:#747474"/>
			<stop  offset="1" style="stop-color:#999999"/>
		</linearGradient>
		<polygon class="st2" points="210.3,-152.2 210.3,291.8 -58.3,291.8 -58.3,-152.2 		"/>
		<linearGradient id="SVGID_2_" gradientUnits="userSpaceOnUse" x1="-71.834" y1="69.7663" x2="223.7661" y2="69.7663">
			<stop  offset="0" style="stop-color:#747474"/>
			<stop  offset="1" style="stop-color:#999999"/>
		</linearGradient>
		<path class="st3" d="M210.3,305.3H-58.3c-7.5,0-13.5-6-13.5-13.5v-444c0-7.5,6-13.5,13.5-13.5h268.6c7.5,0,13.5,6,13.5,13.5v444
			C223.8,299.2,217.7,305.3,210.3,305.3z M-44.8,278.3h241.6v-417H-44.8V278.3z"/>
	</g>
</g>
<line class="st4" x1="-139.6" y1="-22.1" x2="-26.3" y2="47.7"/>
<line class="st4" x1="70.9" y1="-154" x2="70.9" y2="-22.1"/>
<line class="st4" x1="269.4" y1="-31.1" x2="168.1" y2="47.7"/>
<line class="st4" x1="207.9" y1="252.4" x2="133.3" y2="163.9"/>
<line class="st4" x1="-45.6" y1="262.9" x2="8.5" y2="163.9"/>
<g id="M11WIL.tif" class="st5">
	<g class="st1">
		<path class="st6" d="M45.8-164.8c18,0,36.1,0,54.1,0c1.7,0.6,3.3,1.7,5.1,1.9C230.9-146.8,322.9-30.2,309.5,96.4
			c-14,132.1-130.8,227.3-261.2,213c-106.8-11.7-190.3-89.5-209.5-195c-0.9-4.9-2.3-9.7-3.5-14.6c0-18,0-36.1,0-54.1
			c0.6-1.4,1.7-2.7,1.9-4.1c13.6-103,91.2-184.4,193.1-202.7C35.5-162.1,40.6-163.5,45.8-164.8z M72.8,158.8
			c16.1,0,32.2,0.3,48.2-0.3c3-0.1,7.7-3.2,8.6-6c10.5-30.9,20.6-62.1,30.3-93.3c0.8-2.4-0.5-7.1-2.4-8.6
			C131,30.9,104.3,11.4,77.4-7.8c-2-1.4-6.8-1.3-8.9,0.1C41.8,11.3,15.4,30.5-10.9,50c-2.1,1.6-3.7,6.6-2.8,9.2
			c9.6,30.9,19.9,61.6,29.6,92.4c1.7,5.3,4.3,7,9.6,7C41.3,158.6,57,158.8,72.8,158.8z M63.2-56.8c0-12.3-0.4-20.7,0.1-29
			c0.3-5.4-1.6-8.1-6.5-10.1c-21.9-9.2-43.6-18.8-65.5-27.8c-3-1.2-7.6-1-10.6,0.4c-24.5,11.2-46.1,26.7-64.4,46.4
			c-2.1,2.2-3.8,6-3.6,9c1.7,24.6,3.7,49.3,6.2,73.8c0.3,3.1,3.2,7.1,6,8.6c13.3,7.1,26.9,13.7,40.7,19.8c2.9,1.3,8.2,0.6,10.9-1.2
			C-3,18.7,16.5,2.9,37.6-10.6C56.4-22.8,70.6-35.9,63.2-56.8z M234.1-70.1c-0.9-1.3-2.4-4.4-4.6-6.8
			c-18.2-19.4-39.3-34.9-63.6-45.9c-3.3-1.5-8.2-1.7-11.5-0.4c-21.7,8.8-43.2,17.9-64.5,27.6c-2.9,1.3-6,5.8-6.1,8.9
			c-0.6,17-0.5,34.1-0.1,51.1c0.1,3.3,2.1,7.6,4.7,9.5C116.2-5.4,144.2,15,172.5,35c2.6,1.8,8,2.1,10.9,0.7
			c13.3-6.4,26.2-13.6,39-20.9c2.1-1.2,4.6-4,4.8-6.2C229.6-16.9,231.7-42.5,234.1-70.1z M-87.9,32.1c-17,19.6-33.6,38.2-49.5,57.5
			c-3,3.6-4.7,9.8-4.2,14.4c3,25.5,11.2,49.4,23.7,71.7c1.7,3.1,5.7,6,9.2,6.9c15.8,4.2,32.3,6.3,47.7,11.6c20.5,7,36.9,5.8,48.2-15
			c1.6-3,5.4-4.9,6.8-8c1.7-3.6,3.5-8.4,2.4-11.8c-10-32.1-20.5-64.1-31.2-96c-1.1-3.2-3.8-6.9-6.8-8.4
			C-56.5,47.2-71.9,40-87.9,32.1z M234.1,32.2c-15.1,8.3-30.2,16-44.8,24.7c-4.2,2.5-8.4,7-10,11.5c-10.3,30.3-20,60.8-29.4,91.5
			c-1.1,3.4,0.1,8.9,2.3,11.8c6.9,8.8,14.7,16.9,22.6,24.9c1.8,1.8,5.5,3.2,7.9,2.6c24.1-5.2,48.2-10.7,72.2-16.5
			c3-0.7,6.5-3.1,8-5.7c13.3-23.4,21.3-48.7,25-75.3c0.5-3.4-0.4-8-2.6-10.5C268.6,71.4,251.4,52,234.1,32.2z M161.2,213.3
			c-8.9-10.1-16.7-19.5-25.2-28.1c-3-3-7.9-5.8-12-5.9c-34.1-0.5-68.2-0.3-102.2-0.1c-2.8,0-6.5,1-8.4,2.9
			c-8.2,8.5-15.8,17.7-23.9,26.4c-3.3,3.6-3.9,6.2-1.1,10.7c12.4,20.2,24.3,40.8,36.7,61c1.6,2.6,5.1,5.1,8,5.7
			c27,5.5,54.1,5.6,81-0.4c2.5-0.5,5.4-2.4,6.6-4.5C134.4,258.6,147.7,236,161.2,213.3z M-3.3,273.9c-5.8-9.6-12.9-18.7-17.1-28.9
			c-7.9-19.3-21.8-28.2-42-30.3c-10.9-1.1-21.5-4.6-32.3-7C-70.9,239.6-40.7,261.5-3.3,273.9z M-107-47.9
			c-23.2,33.7-40.7,90-34.7,109.9c12.7-14.7,25.3-29.2,37.8-43.7c1.2-1.4,2.6-3.3,2.4-4.9C-103.1-6.3-105-25.9-107-47.9z
			 M149.8,273.6c37.2-12.6,67.2-34.3,90.8-65.1c-19.3,3.5-38.2,7.8-57,12.3c-1.6,0.4-3.4,1.9-4.3,3.4
			C169.4,240.6,159.6,257.1,149.8,273.6z M289.7,63.7c-2.4-41.7-14-77.2-36.6-111.3c-1.8,20.1-3.7,37.9-5,55.7
			c-0.3,3.5,0.2,8.2,2.3,10.7C262.5,33.2,275.1,47.2,289.7,63.7z M129.9-135.9c-36.1-11.2-86.2-10.9-112.8,0.4
			c18.4,7.8,36,15.4,53.6,22.7c1.6,0.7,3.9,0.6,5.5-0.1C93.5-120.2,110.7-127.7,129.9-135.9z"/>
		<path class="st7" d="M72.8,158.8c-15.8,0-31.5-0.2-47.3,0.1c-5.3,0.1-7.9-1.6-9.6-7C6.2,121-4.1,90.4-13.7,59.5
			c-0.8-2.6,0.7-7.6,2.8-9.2C15.3,30.7,41.8,11.5,68.5-7.4c2-1.5,6.9-1.6,8.9-0.1c26.9,19.2,53.6,38.6,80.1,58.4
			c1.9,1.4,3.2,6.1,2.4,8.6c-9.8,31.2-19.8,62.3-30.3,93.3c-0.9,2.7-5.6,5.8-8.6,6C104.9,159.1,88.9,158.8,72.8,158.8z"/>
		<path class="st7" d="M63.2-56.8c7.4,21-6.8,34-25.7,46.2C16.5,2.9-3.1,18.7-23.6,33.1c-2.7,1.9-7.9,2.5-10.9,1.2
			c-13.8-6-27.4-12.7-40.7-19.8c-2.8-1.5-5.7-5.5-6-8.6c-2.5-24.6-4.5-49.2-6.2-73.8c-0.2-2.9,1.5-6.7,3.6-9
			c18.3-19.8,39.9-35.3,64.4-46.4c3-1.4,7.6-1.6,10.6-0.4c22,9,43.7,18.6,65.6,27.7c4.8,2,6.8,4.7,6.5,10.1
			C62.8-77.6,63.2-69.2,63.2-56.8z"/>
		<path class="st7" d="M234.1-70.1c-2.4,27.7-4.4,53.2-6.9,78.7c-0.2,2.2-2.7,5-4.8,6.2c-12.8,7.2-25.8,14.4-39,20.9
			c-2.9,1.4-8.3,1.1-10.9-0.7c-28.3-20-56.3-40.4-84.1-61.1c-2.6-1.9-4.6-6.2-4.7-9.5c-0.5-17-0.5-34.1,0.1-51.1
			c0.1-3.1,3.2-7.6,6.1-8.9c21.3-9.6,42.9-18.8,64.5-27.6c3.3-1.3,8.2-1.1,11.5,0.4c24.3,10.9,45.4,26.5,63.6,45.9
			C231.7-74.6,233.2-71.4,234.1-70.1z"/>
		<path class="st7" d="M-87.9,32.1c16,7.8,31.4,15.1,46.4,23c3,1.5,5.7,5.2,6.8,8.4c10.7,31.9,21.2,63.9,31.2,96
			c1.1,3.4-0.8,8.2-2.4,11.8c-1.4,3.1-5.2,5-6.8,8c-11.3,20.8-27.7,22-48.2,15c-15.4-5.3-31.9-7.4-47.7-11.6
			c-3.5-0.9-7.5-3.8-9.2-6.9c-12.4-22.4-20.7-46.3-23.7-71.7c-0.5-4.7,1.2-10.8,4.2-14.4C-121.5,70.3-104.9,51.7-87.9,32.1z"/>
		<path class="st7" d="M234.1,32.2c17.3,19.8,34.5,39.2,51.2,59c2.1,2.5,3,7.1,2.6,10.5c-3.7,26.6-11.7,51.9-25,75.3
			c-1.5,2.6-5,4.9-8,5.7c-24,5.8-48.1,11.3-72.2,16.5c-2.4,0.5-6.1-0.8-7.9-2.6c-7.9-8-15.7-16.1-22.6-24.9
			c-2.3-2.9-3.4-8.3-2.3-11.8c9.4-30.6,19.1-61.1,29.4-91.5c1.5-4.5,5.8-9,10-11.5C203.9,48.3,219,40.5,234.1,32.2z"/>
		<path class="st7" d="M161.2,213.3c-13.5,22.6-26.8,45.3-40.5,67.7c-1.3,2.1-4.2,4-6.6,4.5c-27,6-54,5.9-81,0.4
			c-3-0.6-6.4-3.1-8-5.7c-12.4-20.2-24.2-40.8-36.7-61c-2.8-4.5-2.2-7.2,1.1-10.7c8.1-8.7,15.6-17.8,23.9-26.4
			c1.8-1.9,5.5-2.9,8.4-2.9c34.1-0.2,68.2-0.3,102.2,0.1c4.1,0.1,9,2.8,12,5.9C144.5,193.8,152.3,203.3,161.2,213.3z"/>
		<path class="st7" d="M-3.3,273.9c-37.4-12.4-67.7-34.3-91.3-66.2c10.8,2.4,21.4,5.8,32.3,7c20.2,2.1,34.1,11,42,30.3
			C-16.1,255.2-9,264.3-3.3,273.9z"/>
		<path class="st7" d="M-107-47.9c2,21.9,3.9,41.6,5.6,61.3c0.1,1.6-1.3,3.5-2.4,4.9c-12.5,14.6-25.1,29-37.8,43.7
			C-147.8,42.1-130.3-14.1-107-47.9z"/>
		<path class="st7" d="M149.8,273.6c9.8-16.5,19.5-33,29.5-49.4c0.9-1.5,2.7-3,4.3-3.4c18.8-4.5,37.7-8.9,57-12.3
			C217,239.3,187,261,149.8,273.6z"/>
		<path class="st7" d="M289.7,63.7c-14.5-16.5-27.2-30.4-39.2-44.9c-2.1-2.5-2.6-7.2-2.3-10.7c1.3-17.8,3.1-35.6,5-55.7
			C275.6-13.5,287.3,22,289.7,63.7z"/>
		<path class="st7" d="M129.9-135.9c-19.2,8.2-36.4,15.7-53.7,23c-1.6,0.7-3.9,0.8-5.5,0.1c-17.6-7.3-35.2-14.9-53.6-22.7
			C43.7-146.8,93.8-147.1,129.9-135.9z"/>
	</g>
</g>
<path class="st8" d="M102.9,141.7H38.8c-6.6,0-12-5.4-12-12V12c0-6.6,5.4-12,12-12h64.1c6.6,0,12,5.4,12,12v117.7
	C114.9,136.3,109.5,141.7,102.9,141.7z"/>
</svg>
