<?xml version="1.0" encoding="utf-8"?>
<!-- Generator: Adobe Illustrator 19.2.0, SVG Export Plug-In . SVG Version: 6.00 Build 0)  -->
<svg version="1.1" id="Layer_1" xmlns="http://www.w3.org/2000/svg" xmlns:xlink="http://www.w3.org/1999/xlink" x="0px" y="0px"
	 viewBox="0 0 955.3 955.3" style="enable-background:new 0 0 955.3 955.3;" xml:space="preserve">
<style type="text/css">
	.st0{fill:#343434;}
	.st1{fill:#C69D69;}
	.st2{fill:#E8D7C4;}
	.st3{fill:#EAB9B9;}
	.st4{fill:#F8EA45;}
	.st5{fill:#F49C14;}
	.st6{fill:#E0C5AA;}
</style>
<g id="dzqyZN.tif">
	<g>
		<path class="st0" d="M367.7,794.7c14.9,0.1,29.9,0.2,44.8,0.2c51.5,0,103,0,154.4,0c0.9,0,1.8-0.1,2.7-0.1c3.9,0,7.8,0.1,11.7,0.1
			c5,0.1,8.1,2.8,8.8,7.8c0.1,0.9,0.1,1.8,0.1,2.7c0,27.2,0,54.4,0,81.5c0,6-1.8,8.6-7,10.3c0,0,0,0,0,0c-6.5,0.1-13.1,0.2-19.6,0.3
			c-13,0-44.3-0.1-46.2-0.1c-1,0-91.8,0-128.5,0c-7.1,0-14.2,0.2-21.3,0.3c-1.7-0.1-3.4-0.2-5.6-0.3c0,5,0,9.6,0,14.3
			c0,4.1,0,8.3,0,12.4c0,6-3.6,9.6-9.7,9.6c-6.2,0-12.4,0-18.6,0c-6.4,0-9.7-3.3-9.7-9.8c0-40.8,0-81.6,0-122.4
			c0-11.1,0-22.3,0-33.4c0-6,3.3-9.4,9.4-9.5c6.4-0.1,12.9-0.1,19.3,0c5.9,0.1,9.3,3.7,9.3,9.6c0,8.7,0,17.4,0,26.5
			C364.2,794.7,366,794.7,367.7,794.7z"/>
		<path class="st1" d="M359.3,636.7c0.9-0.2,2.5,0,2.9,0.7c0.4,0.6,0.3,2.4-0.3,2.9c-1.5,1.4-3.4,2.5-5.2,3.7
			C356.3,642.1,358,637,359.3,636.7z"/>
		<path class="st2" d="M353.5,632C353.5,632,353.5,632,353.5,632C353.5,632,353.5,632,353.5,632z"/>
		<path class="st1" d="M583.3,897.3C583.3,897.3,583.3,897.3,583.3,897.3C583.3,897.3,583.3,897.3,583.3,897.3z"/>
		<path class="st2" d="M455.5,951.5c0.2-3.3,1.6-5.9,4.8-7.6c0.7,0.8,1.3,1.5,1.5,1.8c-0.9,2.3-1.6,4.1-2.3,5.9
			C458.2,951.5,456.8,951.5,455.5,951.5z"/>
		<path class="st2" d="M426.8,357.8c1.9,2.3,3.6,4.7,5.7,6.6c0.9,0.8,2.7,0.7,4,1c1.1,0.2,2.2,0.5,3.6,0.8c-3.4,4.4-6.9,4.6-10,1.3
			c-1.5-1.6-2.7-3.5-4.2-5c-0.8-0.8-2.1-1.2-3.2-1.8c-0.5-0.3-1.1-0.3-1.5-0.7c-0.3-0.3-0.6-0.7-0.7-1.2c-0.5-2.8-0.9-5.7-1.3-8.6
			c0.4-0.1,0.7-0.2,1.1-0.2c0.4,0.5,0.9,1,1.3,1.5c2.9,3.2,5.8,3,7.9-0.7c0.3-0.6,0.2-2-0.3-2.4c-2.1-1.9-1.7-3.7-0.1-5.8
			c1.3,1.6,2.7,3.1,3.9,4.6c2.1,0.2,4-3.7,5.9,0c-0.3,1.8-4.4,2-2,5.1c4.6,6.1,5.9,6.9,10.4,5.3c0.2,1,0.8,2.8,0.7,2.9
			c-1.8,0.8-4,2.2-5.5,1.7c-2.2-0.8-4.1-2.8-5.7-4.7C432.3,352.3,433.5,351.7,426.8,357.8z"/>
		<path class="st2" d="M404.1,396c-5.1-6.2-10-12.3-14.9-18.3c-1.5-1.8-1.3-3,1.2-3.9c1.4,1.7,2.9,3.4,4.3,5c0.4-0.1,0.7,0,0.8-0.1
			c5.6-6.4,9.9-5.5,14.7,1c1.7,2.3,3.5,4.5,5.6,7c-0.8,0.7-1.6,1.4-2.7,2.3c-2.4-3-4.7-5.9-7-8.7c-2.5-3.1-4.5-3.2-7.2-0.7
			c-1.5,1.5-1.8,2.6-0.2,4.3c2.3,2.4,4.2,5.2,6.4,7.7C406.7,393.4,406.7,394.7,404.1,396z"/>
		<path class="st2" d="M508.1,278c1-0.8,1.8-1.5,2.7-2.2c3.1,3.7,6.1,7.3,9.2,11.1c2.7-3.8-1.5-9.3,4.1-12.1c0,2.7,0.1,5.2,0,7.6
			c-0.2,2.4,0.8,3.5,3.2,4c3,0.5,5.9,1.5,9.1,2.3c-1.4,2.8-3.5,2.7-5.9,2c-2.1-0.6-4.3-0.9-6.5-1.4c-0.2,0.3-0.5,0.6-0.7,1
			c1.3,2,2.6,4,4,6.2c-0.7,0.5-1.5,1.1-2.6,2C519.2,291.6,513.8,285,508.1,278z"/>
		<path class="st2" d="M457.7,342.4c-3,2.5-5.7,4.8-8.4,7c2.2,3.5,5.3,3.4,7-0.2c0.9-1.8,1.6-2.9,4-2c0.1,3.7-1.9,6.2-5.1,7.7
			c-3.2,1.5-6,0.6-8.3-2.1c-1.1-1.3-2.2-2.7-3.3-4c-3-3.7-2.7-7.7,0.9-10.5c3.8-3,7.8-2.6,10.8,1.2
			C456.1,340.4,456.8,341.3,457.7,342.4z M447.3,347.2c0.6-0.3,0.9-0.5,1.2-0.7c1-0.8,2-1.5,2.9-2.4c1.9-1.7,1.7-3.5-0.7-3.9
			c-1.4-0.3-3.6,0.5-4.6,1.6C444.4,343.6,445.3,345.6,447.3,347.2z"/>
		<path class="st2" d="M464.5,325.4c0-3,4.5-7.9,7.5-8c0.5,0,1.5,0.6,1.5,0.9c0,0.8-0.2,1.8-0.7,2.3c-1.1,0.9-2.7,1.4-3.7,2.4
			c-0.7,0.7-0.7,2-1,3c1,0.3,2.1,0.9,3.1,0.8c1.4-0.3,2.7-1.7,4.1-1.7c2,0,4.3,0.3,5.8,1.3c2,1.3,2.4,4,0.9,5.8
			c-2.1,2.4-4.8,4.3-7.4,6.3c-0.3,0.3-1.4-0.4-2.2-0.7c0.3-0.7,0.4-1.7,0.9-2.2c1.3-1.1,3.1-1.7,4.2-2.9c0.7-0.8,0.7-2.3,1-3.5
			c-1.2-0.2-2.5-0.6-3.6-0.4c-1.3,0.2-2.5,1.3-3.8,1.6C467.4,331.5,464.5,329.2,464.5,325.4z"/>
		<path class="st2" d="M513.2,289.7c-1.2,0.5-2.4,1-3.6,1.6c-1.4,0.8-3.3,1.5-3.9,2.8c-0.5,1.1,0.3,2.9,0.9,4.3
			c0.4,1,1.3,1.9,2.2,2.6c1.3,0.9,3,2.4,4.1,2.2c1.4-0.3,2.5-2.2,3.7-3.5c0.8-0.9,1.5-1.9,2.6-3.2c1.5,4.4,0.2,7.4-3.6,9.7
			c-2.8,1.7-5.7,1.4-8.1-1.1c-1.4-1.4-2.5-3-3.8-4.5c-2.7-3.2-3.1-6.1-1.2-8.7c2.6-3.7,6.1-4.9,10.1-3.4
			C512.8,288.9,513,289.3,513.2,289.7z"/>
		<path class="st2" d="M479,310.8c1.4-1,2.5-1.8,3.7-2.7c0.7,0.8,1.2,1.5,1.7,2.1c-0.1,0.3-0.2,0.7-0.3,0.7c-3,1.7-2.7,3.7-0.5,5.9
			c1.1,1.1,1.9,2.7,3.2,3.6c1,0.7,2.7,1.4,3.6,1c2.1-0.9,3-0.2,3.7,1.5c-3.3,3.8-6.3,4-9.7,0.3c-1.4-1.5-2.5-3.3-3.9-4.7
			c-0.9-0.8-2.3-1-3.4-1.7c-0.8-0.5-2.2-1.6-2.1-1.8c1.4-2.4-0.8-3.7-1.4-5.5c-0.3-1,0.3-2.3,0.7-4.2C476,307.4,477.4,309,479,310.8
			z"/>
		<path class="st2" d="M493.6,311.3c-2.8,3.4-4.1,1.3-5.4-0.7c-2.6-3.9-1.6-6.6,4.5-10.1c0.2,1.4,0.9,3.2,0.5,3.4
			C489.2,306.6,490.9,309,493.6,311.3z"/>
		<path class="st2" d="M501.6,316.8c-0.6-0.7-1.2-1.5-2.1-2.6c4.6-2.3,4-5.1,0.4-8c1.2-0.9,2-1.5,2.8-2.2
			C508.5,310.1,508.3,313.1,501.6,316.8z"/>
		<path class="st2" d="M571.8,445c-1.4-0.1-2.4-0.1-3.3-0.1c-1.1-6.6,1.7-10.1,7.1-9c0.6,0.1,1.5,1.1,1.5,1.7c0.1,0.6-0.8,2-1.2,1.9
			C571.6,438.8,571.7,441.7,571.8,445z"/>
		<path class="st2" d="M574.3,453.2c0-1.2,0-2.1,0-3.3c3.5,0,6.8-0.3,5.1-5.1c2.9-1.2,4-0.5,3.9,2.3
			C583.2,452.2,580.9,453.9,574.3,453.2z"/>
		<path class="st2" d="M530.9,273.1c-0.9,0.3-1.8,0.8-2.6,0.7c-0.6-0.1-1.6-1-1.6-1.5c0-0.7,0.7-1.6,1.3-1.9c0.4-0.2,1.3,0.6,1.9,1
			C530.3,272,530.6,272.5,530.9,273.1z"/>
		<path class="st3" d="M501.3,410.1c7.9,0,15.9-0.1,23.8,0c8,0.1,13,5.2,13,13.2c0,5.9,0,11.7,0,17.6c0,7-4.9,12.6-11.9,12.6
			c-16.9,0.2-33.8,0.2-50.7,0c-7-0.1-11.8-5.6-11.9-12.7c0-6,0-11.9,0-17.9c0-7.4,5-12.7,12.4-12.8C484.6,410,493,410.1,501.3,410.1
			z"/>
		<path class="st2" d="M397.2,597.6c-1.4,0.8-2.5,1.8-3.6,2c-4.5,0.8-5.7,3.3-3.1,6.9c0.5,0.7,1.1,1.5,1.7,2.2
			c3.7,4.4,6,3.9,8.3-1.3c0.4-0.9,1.8-1.2,2.8-1.8c0.3,0.9,1,1.9,0.8,2.7c-0.7,3.6-3.1,5.7-6.4,7c-3,1.1-5.1-0.4-6.9-2.5
			c-1.7-2-3.4-4-4.8-6.3c-1.7-2.9-1-5.7,1.9-8.2C390.9,595.5,393.6,595.2,397.2,597.6z"/>
		<path class="st2" d="M358.6,614c0.7,0.8,1.3,1.6,2,2.4c0.6,0.8,1.2,1.7,1.5,2.1c2.5-0.3,4.4-4,5.8-0.8c-0.7,2.2-2.2,4.8-1.6,5.3
			c2.5,2.5,3.3,7.6,8.7,6.3c0.9-0.2,2,0.5,3.3,0.8c-3.2,4.5-6.5,4.8-9.8,1.5c-1.4-1.4-2.5-3-3.8-4.4c-1.1-1.2-1.8-3.5-4.3-2.4
			c-0.2,0.1-0.6-0.3-0.8-0.5C358.2,623.3,357.4,615.8,358.6,614z"/>
		<path class="st2" d="M375.7,608.9c0.7,0.7,1.4,1.5,2.1,2.3c-4.3,4.7-4.2,3-0.7,8.5c-0.7,0.6-1.4,1.3-2.6,2.5
			c-1.3-1.9-2.8-3.4-3.6-5.3C369.7,614,371.1,611.9,375.7,608.9z"/>
		<path class="st2" d="M385.1,625.5c-0.3-1.3-1.2-3.2-0.8-3.4c3.6-2.7,2.6-5.1-0.6-7.4c1.2-1,2-1.7,2.8-2.3
			C392.3,617.4,392.1,620.8,385.1,625.5z"/>
		<path class="st2" d="M412,577.8c0.9,1.1,1.9,1.9,1.8,2.3c-0.3,0.8-1.2,1.6-1.9,1.8c-0.4,0.1-1.7-1-1.7-1.5
			C410.2,579.6,411.1,579,412,577.8z"/>
		<path class="st2" d="M519.4,914.6c1.4,4.8,0.1,7.6-3.8,9.9c-2.9,1.7-5.9,1.2-8.3-1.5c-1.4-1.5-2.6-3.2-3.9-4.8
			c-1.9-2.3-2.9-5.3-1.1-7.6c1.8-2.2,4.8-3.5,7.5-4.9c0.5-0.3,1.9,1.1,2.9,1.6c-0.9,0.7-1.7,1.5-2.6,2.1c-1.5,1-3.7,1.6-4.5,3
			c-0.5,0.9,0.8,3,1.5,4.4c0.4,0.8,1.1,1.5,1.6,2.2c3.2,3.7,6.4,3.1,8.2-1.5C517.2,916.5,518.3,915.8,519.4,914.6z"/>
		<path class="st2" d="M501.7,935.1c-0.7-1-1.3-1.8-2.1-2.9c4.6-2.3,4.2-5.1,0.3-7.8c1.2-1,2-1.7,2.7-2.3
			C508.6,927.2,508.4,930.8,501.7,935.1z"/>
		<path class="st2" d="M493.7,929.5c-1.2,1-1.9,1.6-2.6,2.2c-6-5-5.7-8.8,0.9-12.9c0.6,0.7,1.3,1.5,2.2,2.6
			C490,923.6,489.9,926.3,493.7,929.5z"/>
		<path class="st4" d="M447.3,347.2c-2-1.6-2.9-3.6-1.2-5.4c1-1.1,3.2-1.9,4.6-1.6c2.4,0.5,2.6,2.3,0.7,3.9c-0.9,0.8-2,1.6-2.9,2.4
			C448.2,346.8,447.9,346.9,447.3,347.2z"/>
	</g>
</g>
<path class="st5" d="M689.7,379.2c-26.1-46.6-52.1-93.2-78.2-139.8C569.9,165,528.3,90.5,486.7,16.1C481.6,7,475.1,5.2,466,10.3
	c-38.2,21.3-76.4,42.7-114.5,64c-40.2,22.5-80.4,44.9-120.5,67.4c-10,5.6-11.7,11.7-6.2,21.6c2.6,4.7,5.3,9.4,7.9,14.1
	c42.3,75.6,84.6,151.3,126.9,226.9c6.7,12,13.3,24.1,20,36.2c5.8,10.2,11.6,20.3,17.3,30.6c10.4,18.6,20.8,37.3,31.3,56
	c4.5,8,11.4,9.5,19.6,5.6c5.7-2.6,7.1-6.2,7-12.2c-0.3-36.3-0.1-72.7-0.1-109c0-8.7,4.3-13.1,13.1-13.1c22.1,0,44.1,0,66.2,0
	c9.2,0,13.7,4.4,13.7,13.8c0.1,19.8,0,39.5,0,59.3c0,1.4,0,2.7,0,4.8c9.7-5.3,18.9-10.3,28.1-15.3c0.7-0.4,1.3-0.9,2-1.3
	c35.3-19.7,70.5-39.5,105.8-59.2C693.2,395.2,695,388.7,689.7,379.2z"/>
<path class="st6" d="M594.4,554.2c-6.2-31-12.4-62.1-18.6-93.1c-9.2,5-18.4,10-28.1,15.3c0-2.1,0-3.4,0-4.8c0-19.8,0-39.5,0-59.3
	c0-9.4-4.5-13.8-13.7-13.8c-22.1,0-44.1,0-66.2,0c-8.8,0-13.1,4.3-13.1,13.1c0,36.3-0.2,72.7,0.1,109c0,6-1.3,9.5-7,12.2
	c-8.2,3.8-15.2,2.3-19.6-5.6c-10.5-18.6-20.8-37.3-31.3-56c-5.7-10.2-11.5-20.4-17.3-30.6c-15,15.5-30,31-45.1,46.5
	c-1.5,1.5-3.1,3.1-4.9,4.2c-5.3,3.1-7.4,7.5-6,13.6c6.3,26.8,12.7,53.5,19,80.3c3.3,13.9,18.8,78.5,20.7,86.7
	c1.5,6.7,4.3,13.3,4.4,20c0.4,34.3,0.2,68.6,0.1,102.9c14.9,0.1,29.9,0.2,44.8,0.2c51.5,0,103,0,154.4,0c0.9,0,1.8-0.1,2.7-0.1
	c0.5-3.4,1.6-6.8,1.3-10.1c-2.3-23.3-4.8-46.6-7.3-69.8c-2-18.8-3.8-37.7-5.8-56.5c-2.4-23.3-4.9-46.6-7.3-69.8
	c-0.4-3.7-0.6-7.5-0.9-11.2c4.6-1,8.8-2,12.9-2.9c7.3-1.6,14.6-3.2,21.8-4.8C593.4,567.6,596.2,563.1,594.4,554.2z"/>
<path class="st6" d="M367.8,897.7c0,17.9,0,42.8,0,60.7c24.5,0,49.1,0.1,73.6,0.1c3.5,0,7-0.1,10.5-0.1h7.6c6,0,11.9,0,17.9,0
	c0,0,0,0,0,0h5.2c0.2,0,0.3,0.1,0.5,0.1c26.8,0,53.7,0,80.5-0.1c0-18,0.1-42.8,0.1-60.8"/>
</svg>
