<?xml version="1.0" encoding="utf-8"?>
<!-- Generator: Adobe Illustrator 19.2.0, SVG Export Plug-In . SVG Version: 6.00 Build 0)  -->
<svg version="1.1" id="Capa_1" xmlns="http://www.w3.org/2000/svg" xmlns:xlink="http://www.w3.org/1999/xlink" x="0px" y="0px"
	 viewBox="0 0 475.2 475.2" style="enable-background:new 0 0 475.2 475.2;" xml:space="preserve">
<style type="text/css">
	.st0{fill:#F1C40F;stroke:#FFFFFF;stroke-width:27;stroke-linejoin:round;stroke-miterlimit:10;}
	.st1{display:none;fill:none;stroke:#000000;stroke-width:27;stroke-linejoin:round;stroke-miterlimit:10;}
	.st2{display:none;}
	.st3{display:inline;}
	.st4{opacity:0.43;enable-background:new    ;}
	.st5{display:none;fill:#FFFFFF;}
</style>
<polygon class="st0" points="377,14.5 377,458.5 108.4,458.5 108.4,14.5 "/>
<line class="st1" x1="27.1" y1="144.6" x2="140.4" y2="214.4"/>
<line class="st1" x1="237.6" y1="12.7" x2="237.6" y2="144.6"/>
<line class="st1" x1="436.1" y1="135.6" x2="334.8" y2="214.4"/>
<line class="st1" x1="374.6" y1="419.1" x2="300" y2="330.6"/>
<line class="st1" x1="121.1" y1="429.6" x2="175.2" y2="330.6"/>
<g id="M11WIL.tif" class="st2">
	<g class="st3">
		<path class="st4" d="M212.5,1.9c18,0,36.1,0,54.1,0c1.7,0.6,3.3,1.7,5.1,1.9c125.9,16.1,217.9,132.7,204.5,259.3
			c-14,132.1-130.8,227.3-261.2,213c-106.8-11.7-190.3-89.5-209.5-195c-0.9-4.9-2.3-9.7-3.5-14.6c0-18,0-36.1,0-54.1
			c0.6-1.4,1.7-2.7,1.9-4.1C17.5,105.3,95.1,23.9,197,5.6C202.2,4.6,207.3,3.2,212.5,1.9z M239.5,325.5c16.1,0,32.2,0.3,48.2-0.3
			c3-0.1,7.7-3.2,8.6-6c10.5-30.9,20.6-62.1,30.3-93.3c0.8-2.4-0.5-7.1-2.4-8.6c-26.5-19.7-53.2-39.2-80.1-58.4
			c-2-1.4-6.8-1.3-8.9,0.1c-26.7,19-53.1,38.2-79.4,57.7c-2.1,1.6-3.7,6.6-2.8,9.2c9.6,30.9,19.9,61.6,29.6,92.4
			c1.7,5.3,4.3,7,9.6,7C208,325.3,223.7,325.5,239.5,325.5z M229.9,109.9c0-12.3-0.4-20.7,0.1-29c0.3-5.4-1.6-8.1-6.5-10.1
			C201.6,61.6,179.9,52,158,43c-3-1.2-7.6-1-10.6,0.4C122.9,54.6,101.3,70.1,83,89.8c-2.1,2.2-3.8,6-3.6,9
			c1.7,24.6,3.7,49.3,6.2,73.8c0.3,3.1,3.2,7.1,6,8.6c13.3,7.1,26.9,13.7,40.7,19.8c2.9,1.3,8.2,0.6,10.9-1.2
			c20.5-14.4,40-30.2,61.1-43.7C223.1,143.9,237.3,130.8,229.9,109.9z M400.8,96.6c-0.9-1.3-2.4-4.4-4.6-6.8
			c-18.2-19.4-39.3-34.9-63.6-45.9c-3.3-1.5-8.2-1.7-11.5-0.4c-21.7,8.8-43.2,17.9-64.5,27.6c-2.9,1.3-6,5.8-6.1,8.9
			c-0.6,17-0.5,34.1-0.1,51.1c0.1,3.3,2.1,7.6,4.7,9.5c27.8,20.7,55.8,41.1,84.1,61.1c2.6,1.8,8,2.1,10.9,0.7
			c13.3-6.4,26.2-13.6,39-20.9c2.1-1.2,4.6-4,4.8-6.2C396.3,149.8,398.4,124.2,400.8,96.6z M78.8,198.8
			c-17,19.6-33.6,38.2-49.5,57.5c-3,3.6-4.7,9.8-4.2,14.4c3,25.5,11.2,49.4,23.7,71.7c1.7,3.1,5.7,6,9.2,6.9
			c15.8,4.2,32.3,6.3,47.7,11.6c20.5,7,36.9,5.8,48.2-15c1.6-3,5.4-4.9,6.8-8c1.7-3.6,3.5-8.4,2.4-11.8c-10-32.1-20.5-64.1-31.2-96
			c-1.1-3.2-3.8-6.9-6.8-8.4C110.2,213.9,94.8,206.7,78.8,198.8z M400.8,198.9c-15.1,8.3-30.2,16-44.8,24.7c-4.2,2.5-8.4,7-10,11.5
			c-10.3,30.3-20,60.8-29.4,91.5c-1.1,3.4,0.1,8.9,2.3,11.8c6.9,8.8,14.7,16.9,22.6,24.9c1.8,1.8,5.5,3.2,7.9,2.6
			c24.1-5.2,48.2-10.7,72.2-16.5c3-0.7,6.5-3.1,8-5.7c13.3-23.4,21.3-48.7,25-75.3c0.5-3.4-0.4-8-2.6-10.5
			C435.3,238.1,418.1,218.7,400.8,198.9z M327.9,380c-8.9-10.1-16.7-19.5-25.2-28.1c-3-3-7.9-5.8-12-5.9
			c-34.1-0.5-68.2-0.3-102.2-0.1c-2.8,0-6.5,1-8.4,2.9c-8.2,8.5-15.8,17.7-23.9,26.4c-3.3,3.6-3.9,6.2-1.1,10.7
			c12.4,20.2,24.3,40.8,36.7,61c1.6,2.6,5.1,5.1,8,5.7c27,5.5,54.1,5.6,81-0.4c2.5-0.5,5.4-2.4,6.6-4.5
			C301.1,425.3,314.4,402.7,327.9,380z M163.4,440.6c-5.8-9.6-12.9-18.7-17.1-28.9c-7.9-19.3-21.8-28.2-42-30.3
			c-10.9-1.1-21.5-4.6-32.3-7C95.8,406.3,126,428.2,163.4,440.6z M59.7,118.8C36.5,152.5,19,208.8,25,228.7
			C37.7,214,50.3,199.5,62.8,185c1.2-1.4,2.6-3.3,2.4-4.9C63.6,160.4,61.7,140.8,59.7,118.8z M316.5,440.3
			c37.2-12.6,67.2-34.3,90.8-65.1c-19.3,3.5-38.2,7.8-57,12.3c-1.6,0.4-3.4,1.9-4.3,3.4C336.1,407.3,326.3,423.8,316.5,440.3z
			 M456.4,230.4c-2.4-41.7-14-77.2-36.6-111.3c-1.8,20.1-3.7,37.9-5,55.7c-0.3,3.5,0.2,8.2,2.3,10.7
			C429.2,199.9,441.8,213.9,456.4,230.4z M296.6,30.8c-36.1-11.2-86.2-10.9-112.8,0.4c18.4,7.8,36,15.4,53.6,22.7
			c1.6,0.7,3.9,0.6,5.5-0.1C260.2,46.5,277.4,39,296.6,30.8z"/>
		<path class="st5" d="M239.5,325.5c-15.8,0-31.5-0.2-47.3,0.1c-5.3,0.1-7.9-1.6-9.6-7c-9.7-30.9-20-61.5-29.6-92.4
			c-0.8-2.6,0.7-7.6,2.8-9.2c26.2-19.6,52.7-38.8,79.4-57.7c2-1.5,6.9-1.6,8.9-0.1c26.9,19.2,53.6,38.6,80.1,58.4
			c1.9,1.4,3.2,6.1,2.4,8.6c-9.8,31.2-19.8,62.3-30.3,93.3c-0.9,2.7-5.6,5.8-8.6,6C271.6,325.8,255.6,325.5,239.5,325.5z"/>
		<path class="st5" d="M229.9,109.9c7.4,21-6.8,34-25.7,46.2c-21,13.5-40.6,29.3-61.1,43.7c-2.7,1.9-7.9,2.5-10.9,1.2
			c-13.8-6-27.4-12.7-40.7-19.8c-2.8-1.5-5.7-5.5-6-8.6C83,148,81,123.4,79.3,98.8c-0.2-2.9,1.5-6.7,3.6-9
			c18.3-19.8,39.9-35.3,64.4-46.4c3-1.4,7.6-1.6,10.6-0.4c22,9,43.7,18.6,65.6,27.7c4.8,2,6.8,4.7,6.5,10.1
			C229.5,89.1,229.9,97.5,229.9,109.9z"/>
		<path class="st5" d="M400.8,96.6c-2.4,27.7-4.4,53.2-6.9,78.7c-0.2,2.2-2.7,5-4.8,6.2c-12.8,7.2-25.8,14.4-39,20.9
			c-2.9,1.4-8.3,1.1-10.9-0.7c-28.3-20-56.3-40.4-84.1-61.1c-2.6-1.9-4.6-6.2-4.7-9.5c-0.5-17-0.5-34.1,0.1-51.1
			c0.1-3.1,3.2-7.6,6.1-8.9c21.3-9.6,42.9-18.8,64.5-27.6c3.3-1.3,8.2-1.1,11.5,0.4c24.3,10.9,45.4,26.5,63.6,45.9
			C398.4,92.1,399.9,95.3,400.8,96.6z"/>
		<path class="st5" d="M78.8,198.8c16,7.8,31.4,15.1,46.4,23c3,1.5,5.7,5.2,6.8,8.4c10.7,31.9,21.2,63.9,31.2,96
			c1.1,3.4-0.8,8.2-2.4,11.8c-1.4,3.1-5.2,5-6.8,8c-11.3,20.8-27.7,22-48.2,15c-15.4-5.3-31.9-7.4-47.7-11.6
			c-3.5-0.9-7.5-3.8-9.2-6.9c-12.4-22.4-20.7-46.3-23.7-71.7c-0.5-4.7,1.2-10.8,4.2-14.4C45.2,237,61.8,218.4,78.8,198.8z"/>
		<path class="st5" d="M400.8,198.9c17.3,19.8,34.5,39.2,51.2,59c2.1,2.5,3,7.1,2.6,10.5c-3.7,26.6-11.7,51.9-25,75.3
			c-1.5,2.6-5,4.9-8,5.7c-24,5.8-48.1,11.3-72.2,16.5c-2.4,0.5-6.1-0.8-7.9-2.6c-7.9-8-15.7-16.1-22.6-24.9
			c-2.3-2.9-3.4-8.3-2.3-11.8c9.4-30.6,19.1-61.1,29.4-91.5c1.5-4.5,5.8-9,10-11.5C370.6,215,385.7,207.2,400.8,198.9z"/>
		<path class="st5" d="M327.9,380c-13.5,22.6-26.8,45.3-40.5,67.7c-1.3,2.1-4.2,4-6.6,4.5c-27,6-54,5.9-81,0.4c-3-0.6-6.4-3.1-8-5.7
			c-12.4-20.2-24.2-40.8-36.7-61c-2.8-4.5-2.2-7.2,1.1-10.7c8.1-8.7,15.6-17.8,23.9-26.4c1.8-1.9,5.5-2.9,8.4-2.9
			c34.1-0.2,68.2-0.3,102.2,0.1c4.1,0.1,9,2.8,12,5.9C311.2,360.5,319,370,327.9,380z"/>
		<path class="st5" d="M163.4,440.6c-37.4-12.4-67.7-34.3-91.3-66.2c10.8,2.4,21.4,5.8,32.3,7c20.2,2.1,34.1,11,42,30.3
			C150.6,421.9,157.7,431,163.4,440.6z"/>
		<path class="st5" d="M59.7,118.8c2,21.9,3.9,41.6,5.6,61.3c0.1,1.6-1.3,3.5-2.4,4.9c-12.5,14.6-25.1,29-37.8,43.7
			C18.9,208.8,36.4,152.6,59.7,118.8z"/>
		<path class="st5" d="M316.5,440.3c9.8-16.5,19.5-33,29.5-49.4c0.9-1.5,2.7-3,4.3-3.4c18.8-4.5,37.7-8.9,57-12.3
			C383.7,406,353.7,427.7,316.5,440.3z"/>
		<path class="st5" d="M456.4,230.4c-14.5-16.5-27.2-30.4-39.2-44.9c-2.1-2.5-2.6-7.2-2.3-10.7c1.3-17.8,3.1-35.6,5-55.7
			C442.3,153.2,454,188.7,456.4,230.4z"/>
		<path class="st5" d="M296.6,30.8c-19.2,8.2-36.4,15.7-53.7,23c-1.6,0.7-3.9,0.8-5.5,0.1c-17.6-7.3-35.2-14.9-53.6-22.7
			C210.4,19.9,260.5,19.6,296.6,30.8z"/>
	</g>
</g>
</svg>
